<svg xmlns="http://www.w3.org/2000/svg" width="27.55" height="27.55" viewBox="0 0 27.55 27.55"><defs><style>.cls-1{fill:#ed1c24;}</style></defs><title>phone</title><g id="Слой_2" data-name="Слой 2"><g id="Слой_1-2" data-name="Слой 1"><path class="cls-1" d="M20.95,18.23a1.93,1.93,0,0,0-2.92,0c-.68.68-1.36,1.35-2,2a.4.4,0,0,1-.56.1c-.44-.24-.91-.44-1.34-.7A21.17,21.17,0,0,1,9,15,12.09,12.09,0,0,1,7.16,12.1a.42.42,0,0,1,.1-.54c.68-.66,1.35-1.34,2-2a1.94,1.94,0,0,0,0-3L7.68,5C7.13,4.4,6.58,3.85,6,3.3a1.94,1.94,0,0,0-2.92,0c-.69.68-1.35,1.37-2,2A3.32,3.32,0,0,0,0,7.58a9.5,9.5,0,0,0,.73,4.09A24.84,24.84,0,0,0,5.16,19a27.28,27.28,0,0,0,9,7.07,13.07,13.07,0,0,0,5,1.46,3.67,3.67,0,0,0,3.15-1.2c.58-.65,1.24-1.25,1.86-1.87a2,2,0,0,0,0-3Z"/><path class="cls-1" d="M19.85,13.66,22,13.3a9.5,9.5,0,0,0-8-7.79l-.3,2.13a7.34,7.34,0,0,1,6.21,6Z"/><path class="cls-1" d="M23.16,4.46A15.6,15.6,0,0,0,14.22,0l-.3,2.13A13.61,13.61,0,0,1,25.43,13.29l2.12-.36A15.71,15.71,0,0,0,23.16,4.46Z"/></g></g></svg>