<svg xmlns="http://www.w3.org/2000/svg" width="24.99" height="24.99" viewBox="0 0 24.99 24.99"><defs><style>.cls-1{fill:#fff;}</style></defs><title>call</title><g id="Слой_2" data-name="Слой 2"><g id="Слой_1-2" data-name="Слой 1"><path class="cls-1" d="M19,16.53a1.75,1.75,0,0,0-2.65,0c-.62.61-1.24,1.23-1.85,1.85a.36.36,0,0,1-.51.09c-.4-.22-.83-.4-1.21-.63a19.2,19.2,0,0,1-4.63-4.21A11,11,0,0,1,6.5,11a.38.38,0,0,1,.09-.49c.62-.6,1.22-1.21,1.83-1.83A1.76,1.76,0,0,0,8.42,6L7,4.49c-.5-.5-1-1-1.5-1.5A1.76,1.76,0,0,0,2.82,3C2.2,3.61,1.6,4.24,1,4.85a3,3,0,0,0-.95,2,8.62,8.62,0,0,0,.67,3.71,22.53,22.53,0,0,0,4,6.66,24.75,24.75,0,0,0,8.2,6.41A11.85,11.85,0,0,0,17.42,25a3.33,3.33,0,0,0,2.86-1.09c.53-.59,1.13-1.13,1.69-1.7a1.77,1.77,0,0,0,0-2.69Z"/><path class="cls-1" d="M18,12.39l1.92-.33A8.61,8.61,0,0,0,12.64,5l-.27,1.93A6.66,6.66,0,0,1,18,12.39Z"/><path class="cls-1" d="M21,4A14.15,14.15,0,0,0,12.9,0l-.27,1.93A12.35,12.35,0,0,1,23.08,12.06L25,11.73A14.26,14.26,0,0,0,21,4Z"/></g></g></svg>