<svg xmlns="http://www.w3.org/2000/svg" width="67.69" height="67.69" viewBox="0 0 67.69 67.69"><defs><style>.cls-1{fill:#fff;}.cls-2{fill:#ee3524;}</style></defs><title>logo</title><g id="Слой_2" data-name="Слой 2"><g id="Слой_1-2" data-name="Слой 1"><path class="cls-1" d="M67.69,33.84A33.85,33.85,0,1,0,33.85,67.69,33.85,33.85,0,0,0,67.69,33.84"/><path class="cls-2" d="M39.24,11.42a3.9,3.9,0,1,0-3.91-3.91,3.91,3.91,0,0,0,3.91,3.91"/><path class="cls-2" d="M40.36,35.14a2.45,2.45,0,0,0-2.15,1.25,5.39,5.39,0,0,0-.8,3,5.49,5.49,0,0,0,.8,3,2.47,2.47,0,0,0,2.15,1.23,2.42,2.42,0,0,0,2.13-1.23,5.47,5.47,0,0,0,.8-3,5.38,5.38,0,0,0-.8-3,2.4,2.4,0,0,0-2.13-1.25"/><polygon class="cls-2" points="17.74 40.72 21.34 40.72 19.54 36.61 17.74 40.72"/><path class="cls-2" d="M52.94,33.86V45.78H50.32V35.66L48,36.83l-1.1-2,3.41-1.84.75-.39a1.46,1.46,0,0,1,.56-.11,1.37,1.37,0,0,1,1.31,1.43s0,0,0,0M44.48,44.07a5.27,5.27,0,0,1-7.17,1,7,7,0,0,1-2.6-5.83A8.45,8.45,0,0,1,35.35,36a5.43,5.43,0,0,1,5-3.48,4.9,4.9,0,0,1,4.09,2A7.62,7.62,0,0,1,46,39.28a7.59,7.59,0,0,1-1.5,4.8M31.81,45.78H29.19V35.66l-2.31,1.16-1.1-2,3.4-1.84.76-.39a1.41,1.41,0,0,1,.56-.12,1.38,1.38,0,0,1,1.32,1.43Zm-8.26,0L22.3,42.93H16.78l-1.25,2.85H12.72l5.76-12.72h0a1.21,1.21,0,0,1,1.06-.64,1.19,1.19,0,0,1,1.09.71l5.74,12.65ZM26.11,9.37A1.28,1.28,0,1,1,25.34,11a1.28,1.28,0,0,1,.76-1.64M37.33,17a.92.92,0,1,1-.11-1.3.92.92,0,0,1,.11,1.3m11-1.71a.91.91,0,0,1-1.3.11.9.9,0,0,1-.32-.63.94.94,0,0,1,.21-.67.91.91,0,0,1,1.62.52.9.9,0,0,1-.21.67m11.41,3.06a25,25,0,0,1-8.7,4V20.43a5,5,0,0,0,3.75-3.13l-1.82-.67a3.88,3.88,0,0,0-6.71-3.7l-1.52.72.68,1.45a4.85,4.85,0,0,0,3.16,5.09,5.91,5.91,0,0,0,1,.24v2.29A60,60,0,0,1,40,24.24V22.13A5,5,0,0,0,43.77,19L42,18.34a3.88,3.88,0,0,0-6.71-3.7l-1.52.72.68,1.46a4.85,4.85,0,0,0,3.16,5.09,5,5,0,0,0,1,.25v2.19q-2.29.15-4.69.15a72.26,72.26,0,0,1-10.62-.77V20.26a8.28,8.28,0,0,0,1.44-.38A8.15,8.15,0,0,0,30,11.34l1.13-2.44L28.63,7.68A6.51,6.51,0,0,0,17.36,13.9L14.3,15a8.14,8.14,0,0,0,7.12,5.34v3.07C15.51,22.34,10.75,20.53,8,18.3a29.93,29.93,0,1,0,51.71.07"/></g></g></svg>