<svg xmlns="http://www.w3.org/2000/svg" width="40" height="60" viewBox="0 0 40 60"><defs><style>.cls-1{fill:#fff;}.cls-2{fill:none;stroke:#ed1c24;stroke-miterlimit:10;stroke-width:2px;}.cls-3{fill:#ee3524;}</style></defs><title>map-point</title><g id="Слой_2" data-name="Слой 2"><g id="Слой_1-2" data-name="Слой 1"><path class="cls-1" d="M0,20a20,20,0,0,1,40,0c0,11-20,40-20,40S0,31,0,20Z"/><circle class="cls-1" cx="20" cy="20" r="20"/><path class="cls-2" d="M20,49.1C13.12,38.22,6,25.07,6,20a14,14,0,0,1,28,0C34,25.08,26.88,38.22,20,49.1Z"/><circle class="cls-1" cx="20" cy="20" r="17.5"/><path class="cls-3" d="M22.49,9.25a2,2,0,1,0-2-2,2,2,0,0,0,2,2"/><path class="cls-3" d="M23.06,21.35A1.25,1.25,0,0,0,22,22a2.75,2.75,0,0,0-.41,1.55A2.8,2.8,0,0,0,22,25.08a1.26,1.26,0,0,0,1.1.63,1.23,1.23,0,0,0,1.09-.63,2.79,2.79,0,0,0,.41-1.55A2.74,2.74,0,0,0,24.15,22a1.23,1.23,0,0,0-1.09-.64"/><polygon class="cls-3" points="11.54 24.19 13.37 24.19 12.45 22.09 11.54 24.19"/><path class="cls-3" d="M29.48,20.69v6.08H28.14V21.61L27,22.21l-.56-1,1.74-.94.38-.2a.75.75,0,0,1,.29-.06.7.7,0,0,1,.67.73s0,0,0,0M25.17,25.9a2.68,2.68,0,0,1-3.66.53,3.58,3.58,0,0,1-1.32-3,4.31,4.31,0,0,1,.32-1.7A2.77,2.77,0,0,1,23.06,20a2.5,2.5,0,0,1,2.09,1,3.89,3.89,0,0,1,.78,2.45,3.87,3.87,0,0,1-.76,2.45m-6.46.87H17.37V21.61l-1.18.59-.56-1,1.74-.94.39-.2A.72.72,0,0,1,18,20a.7.7,0,0,1,.67.73Zm-4.21,0-.64-1.45H11l-.64,1.45H9l2.94-6.48h0a.61.61,0,0,1,.54-.33.6.6,0,0,1,.56.36l2.92,6.45ZM15.8,8.21a.65.65,0,1,1-.39.84.65.65,0,0,1,.39-.84m5.72,3.9a.47.47,0,1,1-.06-.66.47.47,0,0,1,.06.66m5.6-.87a.47.47,0,0,1-.66.06.46.46,0,0,1-.16-.32.48.48,0,0,1,.11-.34.47.47,0,0,1,.82.27.46.46,0,0,1-.11.34m5.82,1.56a12.72,12.72,0,0,1-4.43,2v-1a2.55,2.55,0,0,0,1.91-1.59l-.93-.34A2,2,0,0,0,26.06,10l-.78.37.35.74a2.47,2.47,0,0,0,1.61,2.6,3,3,0,0,0,.53.12V15a30.58,30.58,0,0,1-4.88.77V14.72a2.54,2.54,0,0,0,1.91-1.59l-.93-.34a2,2,0,0,0-3.42-1.89l-.78.37L20,12a2.47,2.47,0,0,0,1.61,2.59,2.54,2.54,0,0,0,.53.13v1.12q-1.17.07-2.39.08a36.83,36.83,0,0,1-5.41-.39V13.76a4.22,4.22,0,0,0,.74-.19,4.15,4.15,0,0,0,2.71-4.36L18.39,8l-1.3-.62a3.32,3.32,0,0,0-5.74,3.17l-1.56.57a4.15,4.15,0,0,0,3.63,2.72v1.56a15.76,15.76,0,0,1-6.83-2.61,15.26,15.26,0,1,0,26.36,0"/></g></g></svg>